<?xml version="1.0" encoding="utf-8"?>
<!-- Generator: Adobe Illustrator 18.1.1, SVG Export Plug-In . SVG Version: 6.00 Build 0)  -->
<!DOCTYPE svg PUBLIC "-//W3C//DTD SVG 1.1//EN" "http://www.w3.org/Graphics/SVG/1.1/DTD/svg11.dtd">
<svg version="1.1" id="Layer_1" xmlns="http://www.w3.org/2000/svg" xmlns:xlink="http://www.w3.org/1999/xlink" x="0px" y="0px"
	 viewBox="-10.5 1115.8 813.6 115.5" enable-background="new -10.5 1115.8 813.6 115.5" xml:space="preserve">
<g>
	<path fill="#9BCB52" d="M525.5,1205.9h-6.4c-1.6,0-2.7-1.3-2.7-2.7v-7.1H516c-4.9,7.4-12.6,11.2-21.1,11.3
		c-16.1,0.3-29.4-12.6-30.7-28.8c-1.7-20.2,10.3-35.9,29.8-35.9c10.1,0,17.4,4.5,21.7,10.9h0.3v-35c0-1.6,1.3-2.7,2.7-2.7h6.7
		c1.6,0,2.7,1.3,2.7,2.7v84.5C528.4,1204.6,527.2,1205.9,525.5,1205.9z M496.7,1152.9c-12.3,0-19.8,9.4-19.8,21.7
		s7.3,21.9,19.8,21.9c12.3,0,19.8-9.6,19.8-21.9S509,1152.9,496.7,1152.9z"/>
	<path fill="#9BCB52" d="M570.8,1207.4c-18.5,0-33-12.9-33-32.2c0-19.1,14.4-32.4,33-32.4c18.4,0,32.8,13.3,32.8,32.4
		C603.6,1194.4,589.4,1207.4,570.8,1207.4z M570.8,1152.9c-12.6,0-20.2,9.7-20.2,21.7c0,12.3,7.7,21.9,20.2,21.9
		c12.3,0,20.2-9.7,20.2-21.9S583.4,1152.9,570.8,1152.9z"/>
	<path fill="#9BCB52" d="M622.7,1205.9H616c-1.6,0-2.7-1.3-2.7-2.7v-84.6c0-1.6,1.3-2.7,2.7-2.7h6.7c1.6,0,2.7,1.3,2.7,2.7v84.5
		C625.6,1204.6,624.3,1205.9,622.7,1205.9z"/>
	<path fill="#9BCB52" d="M648.5,1205.9h-6.7c-1.6,0-2.7-1.3-2.7-2.7v-84.6c0-1.6,1.3-2.7,2.7-2.7h6.7c1.6,0,2.7,1.3,2.7,2.7v84.5
		C651.4,1204.6,650,1205.9,648.5,1205.9z"/>
	<path fill="#9BCB52" d="M711.2,1205.9h-6.5c-1.6,0-2.7-1.1-2.7-2.7l-0.1-5c-2.4,2.6-8.5,9.4-19.8,9.4c-11.4,0-21.5-7.1-21.5-19.1
		c0-12.2,9.9-18.3,24.2-18.8l16.6-0.7v-2.4c0-9.4-6.4-14.1-15.4-14.1c-6.7,0-12.8,2.3-16.1,3.9c-1.5,0.7-3,0.1-3.8-1.3l-1.5-3.2
		c-0.6-1.5,0-3,1.3-3.5c4.8-2.3,12.2-4.9,20.9-4.9c10.3,0,16.3,2.9,20.4,7.1c4.2,4.3,6.7,9.6,6.7,20.2v33.2
		C714.1,1204.6,712.8,1205.9,711.2,1205.9z M701.8,1176.1l-14.5,0.9c-10.1,0.6-14.1,4.8-14.1,10.7s4.5,10.7,12.8,10.7
		c8.1,0,13.5-5.5,15.9-9v-13.4H701.8z"/>
	<path fill="#9BCB52" d="M750.3,1154.1c-5.5,0-8.8,3.5-10.2,5.3c-1.1,1.7-3.8,6.5-3.8,15.8v28.1c0,1.6-1.3,2.7-2.7,2.7h-7
		c-1.6,0-2.7-1.3-2.7-2.7v-56.5c0-1.6,1.3-2.7,2.7-2.7h7c1.6,0,2.7,1.3,2.7,2.9l-0.1,6.7h0.3c3-7.1,8.6-10.7,15.2-10.7
		c1.6,0,3,0.1,4.1,0.3c1.5,0.3,2.3,1.5,2.3,2.9l-0.3,5.9c-0.1,1.7-1.7,2.9-3.5,2.4C753.3,1154.2,751.9,1154.1,750.3,1154.1z"/>
	<path fill="#039CB5" d="M246.9,1177h-49.2c0.6,14.4,8.7,24,22.5,24c9.4,0,15.9-3.5,19.1-5.9c1.3-0.9,3.2-0.6,4.1,0.7l0.1,0.1
		c0.9,1.1,0.6,2.9-0.6,3.8c-3.2,2.6-10.7,7.4-23.4,7.4c-17.6,0-29-13.1-29-31.6c0-18.7,13.4-31.3,29.4-31.3s27.4,12,27.4,28.3
		C247.3,1174.4,246.9,1177,246.9,1177z M240.5,1171.2c0-7.9-5.8-21.1-20.9-21.1c-15,0-21.1,12.6-21.5,21.1H240.5z"/>
	<path fill="#039CB5" d="M303.2,1149.3l-23.1,54.8c-0.3,0.9-1.5,1.7-2.6,1.7H276c-1.1,0-2.2-0.7-2.6-1.7l-23-54.8
		c-0.9-1.8,0.6-4.1,2.6-4.1h0.9c1.1,0,2.2,0.7,2.6,1.7l20.2,49.1l20.2-49.1c0.3-0.9,1.5-1.7,2.6-1.7h0.9
		C302.6,1145.2,304.1,1147.3,303.2,1149.3z"/>
	<path fill="#039CB5" d="M362.3,1177H313c0.6,14.4,8.7,24,22.5,24c9.4,0,15.9-3.5,19.1-5.9c1.3-0.9,3.2-0.6,4.1,0.7l0.1,0.1
		c0.9,1.1,0.6,2.9-0.6,3.8c-3.2,2.6-10.7,7.4-23.4,7.4c-17.6,0-29-13.1-29-31.6c0-18.7,13.4-31.3,29.4-31.3s27.4,12,27.4,28.3
		C362.6,1174.4,362.3,1177,362.3,1177z M355.6,1171.2c0-7.9-5.8-21.1-20.9-21.1c-15,0-21.1,12.6-21.5,21.1H355.6z"/>
	<path fill="#039CB5" d="M400.1,1148.4c-0.1,1.6-1.6,2.9-3.3,2.6c-0.9-0.1-2.2-0.3-3.5-0.3c-5.8,0-9.4,4.1-10.5,5.5
		c-0.9,1.5-4.3,6.5-4.3,17v29.8c0,1.6-1.3,2.9-2.9,2.9h-0.9c-1.6,0-2.9-1.3-2.9-2.9v-54.8c0-1.6,1.3-2.9,2.9-2.9h0.9
		c1.6,0,2.9,1.3,2.9,2.9v8.5c2.2-8.2,8.8-12.3,15.4-12.3c1.5,0,2.7,0.1,3.8,0.3c1.5,0.3,2.6,1.6,2.4,3.2L400.1,1148.4z"/>
	<path fill="#039CB5" d="M457.9,1145.2c2.3,0,3.9,2.3,3,4.5l-28.9,70.1c-4.2,10.1-9.4,11.3-13.7,11.3c-1.6,0-3-0.3-4.2-0.6
		c-1.7-0.3-2.9-2.2-2.4-3.9l0,0c0.3-1.7,2.1-3,3.8-2.6c0.9,0.1,1.7,0.3,2.9,0.3c3.5,0,6.2-1.3,9-9.6l3.5-10.1l-22.4-55.2
		c-0.9-2.2,0.7-4.5,3-4.5l0,0c1.3,0,2.6,0.9,3,2.1l20,50.7l20-50.7C455.5,1146.1,456.6,1145.2,457.9,1145.2L457.9,1145.2z"/>
	<g>
		<path fill="#9BCB52" d="M97,1116.4c0,0-61.6-3.8-107.5,42.2l69.8,21c0,0,39.6-49.5,106-45.6L97,1116.4z M73.1,1139.3
			c-10.9,0-19.9-2.6-19.9-5.8s8.8-5.8,19.9-5.8c10.9,0,19.9,2.6,19.9,5.8C93,1136.8,84.1,1139.3,73.1,1139.3z"/>
		<path fill="#9BCB52" d="M163.5,1137.6c-58.3,0.3-102.6,54.5-102.6,54.5l-65.2-21.8l7.4,16.5l58.4,20.2c0,0,45.7-65.9,101.6-67.9
			L163.5,1137.6z"/>
		<path fill="#9BCB52" d="M161.1,1142.5c-49.2,4.3-98.5,76.8-98.5,76.8L8.9,1199l6.2,13.8l47.5,18.5c36.1-55.9,71.9-83.2,97.8-87
			L161.1,1142.5z"/>
	</g>
</g>
<g>
	<path fill="#9BCA52" d="M772,1162.8v-17h-6.2v-2.1h14.4v2.1h-5.9v17H772z"/>
	<path fill="#9BCA52" d="M800,1162.8v-15.7l-6.4,15.7h-0.8l-6.4-15.7v15.7h-2.3v-19.3h3.6l5.9,14.4l5.9-14.4h3.6v19.3H800z"/>
</g>
</svg>
