<?xml version="1.0" encoding="utf-8"?>
<!-- Generator: Adobe Illustrator 18.1.0, SVG Export Plug-In . SVG Version: 6.00 Build 0)  -->
<svg version="1.1" id="Layer_1" xmlns="http://www.w3.org/2000/svg" xmlns:xlink="http://www.w3.org/1999/xlink" x="0px" y="0px"
	 viewBox="0 249.8 792 112.3" enable-background="new 0 249.8 792 112.3" xml:space="preserve">
<g>
	<path fill="#FFFFFF" d="M521.8,337.4h-6.2c-1.6,0-2.6-1.3-2.6-2.6v-6.9h-0.4c-4.8,7.2-12.3,10.9-20.5,11
		c-15.7,0.3-28.6-12.3-29.9-28c-1.7-19.7,10-34.9,29-34.9c9.8,0,16.9,4.4,21.1,10.6h0.3v-34.1c0-1.6,1.3-2.6,2.6-2.6h6.5
		c1.6,0,2.6,1.3,2.6,2.6v82.3C524.6,336.2,523.4,337.4,521.8,337.4z M493.7,285.8c-12,0-19.3,9.2-19.3,21.1c0,12,7.1,21.3,19.3,21.3
		c12,0,19.3-9.3,19.3-21.3C513,295,505.7,285.8,493.7,285.8z"/>
	<path fill="#FFFFFF" d="M565.9,338.9c-18,0-32.1-12.6-32.1-31.3c0-18.6,14-31.5,32.1-31.5c17.9,0,31.9,12.9,31.9,31.5
		C597.8,326.2,584,338.9,565.9,338.9z M565.9,285.8c-12.3,0-19.7,9.4-19.7,21.1c0,12,7.5,21.3,19.7,21.3c12,0,19.7-9.4,19.7-21.3
		C585.5,295.1,578.1,285.8,565.9,285.8z"/>
	<path fill="#FFFFFF" d="M616.4,337.4h-6.5c-1.6,0-2.6-1.3-2.6-2.6v-82.4c0-1.6,1.3-2.6,2.6-2.6h6.5c1.6,0,2.6,1.3,2.6,2.6v82.3
		C619.2,336.2,617.9,337.4,616.4,337.4z"/>
	<path fill="#FFFFFF" d="M641.5,337.4H635c-1.6,0-2.6-1.3-2.6-2.6v-82.4c0-1.6,1.3-2.6,2.6-2.6h6.5c1.6,0,2.6,1.3,2.6,2.6v82.3
		C644.3,336.2,643,337.4,641.5,337.4z"/>
	<path fill="#FFFFFF" d="M702.5,337.4h-6.3c-1.6,0-2.6-1.1-2.6-2.6l-0.1-4.9c-2.3,2.5-8.3,9.2-19.3,9.2c-11.1,0-20.9-6.9-20.9-18.6
		c0-11.9,9.6-17.8,23.6-18.3l16.2-0.7v-2.3c0-9.2-6.2-13.7-15-13.7c-6.5,0-12.5,2.2-15.7,3.8c-1.5,0.7-2.9,0.1-3.7-1.3l-1.5-3.1
		c-0.6-1.5,0-2.9,1.3-3.4c4.7-2.2,11.9-4.8,20.3-4.8c10,0,15.9,2.8,19.9,6.9c4.1,4.2,6.5,9.3,6.5,19.7v32.3
		C705.4,336.2,704.1,337.4,702.5,337.4z M693.4,308.4l-14.1,0.9c-9.8,0.6-13.7,4.7-13.7,10.4c0,5.7,4.4,10.4,12.5,10.4
		c7.9,0,13.1-5.4,15.5-8.8L693.4,308.4L693.4,308.4L693.4,308.4z"/>
	<path fill="#FFFFFF" d="M740.6,287c-5.4,0-8.6,3.4-9.9,5.2c-1.1,1.7-3.7,6.3-3.7,15.4v27.4c0,1.6-1.3,2.6-2.6,2.6h-6.8
		c-1.6,0-2.6-1.3-2.6-2.6v-55c0-1.6,1.3-2.6,2.6-2.6h6.8c1.6,0,2.6,1.3,2.6,2.8l-0.1,6.5h0.3c2.9-6.9,8.4-10.4,14.8-10.4
		c1.6,0,2.9,0.1,4,0.3c1.5,0.3,2.2,1.5,2.2,2.8l-0.3,5.7c-0.1,1.7-1.7,2.8-3.4,2.3C743.5,287.1,742.2,287,740.6,287z"/>
	<path fill="#FFFFFF" d="M250.6,309.3h-47.9c0.6,14,8.5,23.4,21.9,23.4c9.2,0,15.5-3.4,18.6-5.7c1.3-0.9,3.1-0.6,4,0.7l0.1,0.1
		c0.9,1.1,0.6,2.8-0.6,3.7c-3.1,2.5-10.4,7.2-22.8,7.2c-17.1,0-28.2-12.8-28.2-30.8c0-18.2,13-30.5,28.6-30.5s26.7,11.7,26.7,27.5
		C251,306.8,250.6,309.3,250.6,309.3z M244.3,303.7c0-7.7-5.6-20.5-20.3-20.5c-14.6,0-20.5,12.3-20.9,20.5H244.3z"/>
	<path fill="#FFFFFF" d="M305.4,282.3l-22.5,53.3c-0.3,0.9-1.5,1.7-2.5,1.7h-1.5c-1.1,0-2.1-0.7-2.5-1.7L254,282.3
		c-0.9-1.8,0.6-4,2.5-4h0.9c1.1,0,2.1,0.7,2.5,1.7l19.7,47.8l19.7-47.8c0.3-0.9,1.5-1.7,2.5-1.7h0.9
		C304.8,278.4,306.2,280.4,305.4,282.3z"/>
	<path fill="#FFFFFF" d="M362.9,309.3h-48c0.6,14,8.5,23.4,21.9,23.4c9.2,0,15.5-3.4,18.6-5.7c1.3-0.9,3.1-0.6,4,0.7l0.1,0.1
		c0.9,1.1,0.6,2.8-0.6,3.7c-3.1,2.5-10.4,7.2-22.8,7.2c-17.1,0-28.2-12.8-28.2-30.8c0-18.2,13-30.5,28.6-30.5s26.7,11.7,26.7,27.5
		C363.2,306.8,362.9,309.3,362.9,309.3z M356.4,303.7c0-7.7-5.6-20.5-20.3-20.5c-14.6,0-20.5,12.3-20.9,20.5H356.4z"/>
	<path fill="#FFFFFF" d="M399.7,281.5c-0.1,1.6-1.6,2.8-3.2,2.5c-0.9-0.1-2.1-0.3-3.4-0.3c-5.6,0-9.2,4-10.2,5.4
		c-0.9,1.5-4.2,6.3-4.2,16.5v29c0,1.6-1.3,2.8-2.8,2.8H375c-1.6,0-2.8-1.3-2.8-2.8v-53.3c0-1.6,1.3-2.8,2.8-2.8h0.9
		c1.6,0,2.8,1.3,2.8,2.8v8.3c2.1-8,8.6-12,15-12c1.5,0,2.6,0.1,3.7,0.3c1.5,0.3,2.5,1.6,2.3,3.1V281.5z"/>
	<path fill="#FFFFFF" d="M456,278.4c2.2,0,3.8,2.2,2.9,4.4L430.8,351c-4.1,9.8-9.2,11-13.3,11c-1.6,0-2.9-0.3-4.1-0.6
		c-1.7-0.3-2.8-2.1-2.3-3.8l0,0c0.3-1.7,2-2.9,3.7-2.5c0.9,0.1,1.7,0.3,2.8,0.3c3.4,0,6-1.3,8.8-9.3l3.4-9.8l-21.8-53.7
		c-0.9-2.1,0.7-4.4,2.9-4.4l0,0c1.3,0,2.5,0.9,2.9,2l19.5,49.4l19.5-49.4C453.6,279.2,454.7,278.4,456,278.4L456,278.4z"/>
	<g>
		<path fill="#FFFFFF" d="M104.6,250.3c0,0-60-3.7-104.6,41.1l67.9,20.4c0,0,38.5-48.2,103.2-44.4L104.6,250.3z M81.4,272.6
			c-10.6,0-19.4-2.5-19.4-5.6s8.6-5.6,19.4-5.6c10.6,0,19.4,2.5,19.4,5.6C100.8,270.2,92.1,272.6,81.4,272.6z"/>
		<path fill="#FFFFFF" d="M169.4,271c-56.8,0.3-99.9,53.1-99.9,53.1L6,302.8l7.2,16.1l56.8,19.7c0,0,44.5-64.2,98.9-66.1L169.4,271z
			"/>
		<path fill="#FFFFFF" d="M167,275.7c-47.9,4.2-95.9,74.8-95.9,74.8l-52.3-19.8l6,13.4l46.2,18c35.1-54.4,70-81,95.2-84.7L167,275.7
			z"/>
	</g>
</g>
<g>
	<path fill="#FFFFFF" d="M761.7,295.5v-16.5h-6v-2h14v2H764v16.5H761.7z"/>
	<path fill="#FFFFFF" d="M789,295.5v-15.3l-6.2,15.3H782l-6.2-15.3v15.3h-2.2v-18.8h3.5l5.7,14l5.7-14h3.5v18.8H789z"/>
</g>
</svg>
