<?xml version="1.0" encoding="utf-8"?>
<!-- Generator: Adobe Illustrator 18.1.0, SVG Export Plug-In . SVG Version: 6.00 Build 0)  -->
<svg version="1.1" id="Layer_1" xmlns="http://www.w3.org/2000/svg" xmlns:xlink="http://www.w3.org/1999/xlink" x="0px" y="0px"
	 viewBox="0 0 350 237.8" enable-background="new 0 0 350 237.8" xml:space="preserve">
<g>
	<g>
		<path fill="#9BCB52" d="M206.5,150.5h-4c-1,0-1.7-0.8-1.7-1.7v-4.4h-0.2c-3.1,4.6-7.7,6.9-13.1,7c-10,0.2-18-7.8-18.9-17.7
			c-1.1-12.4,6.4-22.1,18.3-22.1c6.2,0,10.7,2.7,13.4,6.7h0.2V96.7c0-1,0.8-1.7,1.7-1.7h4.2c1,0,1.7,0.8,1.7,1.7v52.1
			C208.3,149.8,207.5,150.5,206.5,150.5z M188.7,117.8c-7.7,0-12.2,5.8-12.2,13.4s4.5,13.5,12.2,13.5c7.6,0,12.2-5.9,12.2-13.5
			S196.4,117.8,188.7,117.8z"/>
		<path fill="#9BCB52" d="M234.5,151.4c-11.4,0-20.3-8-20.3-19.9c0-11.8,8.9-20,20.3-20c11.4,0,20.2,8.1,20.2,20
			C254.7,143.4,245.9,151.4,234.5,151.4z M234.5,117.8c-7.7,0-12.5,6-12.5,13.4c0,7.6,4.8,13.5,12.5,13.5c7.7,0,12.4-6,12.4-13.5
			C246.9,123.8,242.2,117.8,234.5,117.8z"/>
		<path fill="#9BCB52" d="M266.4,150.5h-4.2c-1,0-1.7-0.8-1.7-1.7V96.7c0-1,0.8-1.7,1.7-1.7h4.2c1,0,1.7,0.8,1.7,1.7v52.1
			C268.2,149.8,267.4,150.5,266.4,150.5z"/>
		<path fill="#9BCB52" d="M282.3,150.5h-4.2c-1,0-1.7-0.8-1.7-1.7V96.7c0-1,0.8-1.7,1.7-1.7h4.2c1,0,1.7,0.8,1.7,1.7v52.1
			C284,149.8,283.3,150.5,282.3,150.5z"/>
		<path fill="#9BCB52" d="M321,150.5h-4.1c-0.9,0-1.7-0.8-1.7-1.7l-0.1-3.1c-1.5,1.6-5.2,5.7-12.2,5.7c-7.1,0-13.2-4.4-13.2-11.8
			c0-7.5,6.1-11.3,15-11.7l10.2-0.4V126c0-5.8-3.9-8.7-9.5-8.7c-4.2,0-7.8,1.4-10,2.4c-0.9,0.4-1.9,0-2.3-0.8l-0.9-2
			c-0.4-0.9,0-1.9,0.8-2.3c3-1.5,7.5-3.1,12.8-3.1c6.4,0,10.1,1.8,12.6,4.3c2.6,2.7,4.1,5.9,4.1,12.4v20.5
			C322.7,149.8,322,150.5,321,150.5z M315.1,132.2l-8.9,0.6c-6.2,0.3-8.7,3-8.7,6.6s2.8,6.6,7.9,6.6c5,0,8.3-3.4,9.7-5.6V132.2z"/>
		<path fill="#9BCB52" d="M345.1,118.6c-3.4,0-5.5,2.2-6.3,3.2c-0.7,1-2.3,4-2.3,9.7v17.4c0,1-0.8,1.7-1.7,1.7h-4.3
			c-1,0-1.7-0.8-1.7-1.7V114c0-1,0.8-1.7,1.7-1.7h4.3c1,0,1.7,0.8,1.7,1.7l-0.1,4.1h0.2c1.9-4.3,5.3-6.6,9.4-6.6
			c1,0,1.9,0.1,2.5,0.2c0.9,0.2,1.5,0.9,1.4,1.8l-0.3,3.7c-0.1,1.1-1.1,1.8-2.1,1.6C346.9,118.7,346.1,118.6,345.1,118.6z"/>
		<path fill="#039CB5" d="M34.8,132.8H4.4c0.4,8.9,5.4,14.7,13.9,14.7c5.7,0,9.7-2.2,11.7-3.7c0.8-0.6,1.9-0.4,2.5,0.5l0.1,0.1
			c0.5,0.8,0.4,1.8-0.3,2.4c-2,1.6-6.6,4.5-14.4,4.5C7,151.3,0,143.3,0,131.9c0-11.5,8.2-19.3,18.1-19.3c9.8,0,16.9,7.4,16.9,17.5
			C35,131.2,34.8,132.8,34.8,132.8z M30.8,129.2c0-4.8-3.6-13-12.9-13c-9.3,0-13,7.8-13.3,13H30.8z"/>
		<path fill="#039CB5" d="M69.5,115.6l-14.2,33.8c-0.3,0.7-0.9,1.1-1.6,1.1h-0.9c-0.7,0-1.4-0.4-1.6-1.1L37,115.6
			c-0.5-1.2,0.4-2.5,1.6-2.5h0.6c0.7,0,1.4,0.4,1.6,1.1l12.4,30.2l12.4-30.2c0.3-0.7,0.9-1.1,1.6-1.1h0.6
			C69.1,113.2,70,114.5,69.5,115.6z"/>
		<path fill="#039CB5" d="M105.8,132.8H75.5c0.4,8.9,5.4,14.7,13.9,14.7c5.7,0,9.7-2.2,11.7-3.7c0.8-0.6,1.9-0.4,2.5,0.5l0.1,0.1
			c0.5,0.8,0.4,1.8-0.3,2.4c-2,1.6-6.6,4.5-14.4,4.5c-10.9,0-17.9-8.1-17.9-19.5c0-11.5,8.2-19.3,18.1-19.3
			c9.8,0,16.9,7.4,16.9,17.5C106.1,131.2,105.8,132.8,105.8,132.8z M101.8,129.2c0-4.8-3.6-13-12.9-13c-9.3,0-13,7.8-13.3,13H101.8z
			"/>
		<path fill="#039CB5" d="M129.2,115.1c-0.1,1-1,1.8-2,1.6c-0.6-0.1-1.3-0.2-2.2-0.2c-3.6,0-5.8,2.5-6.4,3.4
			c-0.6,0.9-2.7,4-2.7,10.5v18.4c0,1-0.8,1.8-1.8,1.8h-0.6c-1,0-1.8-0.8-1.8-1.8v-33.8c0-1,0.8-1.8,1.8-1.8h0.6c1,0,1.8,0.8,1.8,1.8
			v5.2c1.4-5.1,5.5-7.7,9.5-7.7c0.9,0,1.7,0.1,2.4,0.2c0.9,0.1,1.6,1,1.5,1.9L129.2,115.1z"/>
		<path fill="#039CB5" d="M164.9,113.2c1.5,0,2.4,1.5,1.9,2.8L149,159.2c-2.6,6.2-5.8,7-8.4,7c-1,0-1.9-0.1-2.6-0.3
			c-1.1-0.3-1.8-1.3-1.5-2.4l0,0c0.2-1.1,1.3-1.8,2.4-1.6c0.5,0.1,1.1,0.2,1.8,0.2c2.3,0,3.8-0.8,5.6-5.9l2.2-6.2l-13.9-34
			c-0.5-1.3,0.4-2.8,1.9-2.8l0,0c0.8,0,1.6,0.5,1.9,1.3l12.4,31.2l12.4-31.2C163.3,113.7,164,113.2,164.9,113.2L164.9,113.2z"/>
		<g>
			<path fill="#9BCB52" d="M195.8,0.1c0,0-42.6-2.6-74.5,29.1l48.4,14.7c0,0,27.5-34.3,73.4-31.6L195.8,0.1z M179.3,16
				c-7.6,0-13.7-1.8-13.7-4c0-2.2,6.1-4,13.7-4c7.6,0,13.7,1.8,13.7,4C193.1,14.2,186.9,16,179.3,16z"/>
			<path fill="#9BCB52" d="M241.9,14.8c-40.3,0.3-71.1,37.7-71.1,37.7l-45.2-15.2l5.2,11.4l40.4,13.9c0,0,31.7-45.7,70.3-47
				L241.9,14.8z"/>
			<path fill="#9BCB52" d="M240.3,18.2c-34.1,3-68.2,53.2-68.2,53.2l-37.3-14.2l4.3,9.6l32.9,12.9c25-38.7,49.8-57.6,67.7-60.4
				L240.3,18.2z"/>
		</g>
	</g>
	<g>
		<path fill="#666766" d="M78.4,231.5c-0.5,0.3-1.2,0.6-2.1,0.9c-0.9,0.3-1.7,0.4-2.6,0.4c-1.3,0-2.5-0.2-3.5-0.7
			c-1-0.5-1.7-1-2.4-1.8c-0.6-0.8-1.1-1.6-1.3-2.6c-0.3-1-0.4-2-0.4-3s0.1-2,0.4-3c0.3-1,0.7-1.8,1.2-2.6c0.5-0.7,1.2-1.3,2-1.8
			c0.8-0.4,1.8-0.7,3-0.7c1.2,0,2.2,0.2,3,0.7c0.8,0.5,1.5,1.1,2,1.8c0.5,0.8,0.9,1.6,1.1,2.6c0.2,1,0.3,2,0.3,3v0.6H68.8
			c0,0.6,0.1,1.3,0.4,1.9c0.2,0.6,0.5,1.1,0.9,1.6c0.4,0.5,0.9,0.9,1.5,1.1c0.6,0.3,1.3,0.4,2.1,0.4c1.1,0,2-0.2,2.7-0.5
			s1.4-0.7,2-1.1V231.5z M76.4,223.7c0-0.5-0.1-1-0.2-1.6c-0.1-0.6-0.3-1.1-0.6-1.6c-0.3-0.5-0.7-0.9-1.2-1.2
			c-0.5-0.3-1.1-0.5-1.9-0.5c-0.7,0-1.3,0.2-1.8,0.5c-0.5,0.3-0.9,0.8-1.2,1.2c-0.3,0.5-0.5,1-0.6,1.6c-0.1,0.5-0.2,1-0.2,1.5H76.4z
			"/>
		<path fill="#666766" d="M82.1,219.1h-1.5c-0.1-0.3-0.2-0.6-0.2-0.9c0-0.3,0.1-0.6,0.2-0.9h6c0.1,0.3,0.2,0.6,0.2,0.9
			c0,0.3-0.1,0.6-0.2,0.9h-1.9l2.9,8.6c0,0.1,0.1,0.3,0.2,0.6c0.1,0.2,0.2,0.5,0.2,0.8c0.1,0.3,0.2,0.6,0.2,0.8
			c0.1,0.3,0.1,0.5,0.2,0.6c0-0.1,0.1-0.3,0.1-0.6s0.2-0.5,0.3-0.8c0.1-0.3,0.2-0.6,0.3-0.8c0.1-0.2,0.1-0.4,0.2-0.6l2.9-8.6h-1.9
			c-0.1-0.3-0.2-0.6-0.2-0.9c0-0.3,0.1-0.6,0.2-0.9H96c0.1,0.3,0.2,0.6,0.2,0.9c0,0.3-0.1,0.6-0.2,0.9h-1.6l-4.9,13.4H87L82.1,219.1
			z"/>
		<path fill="#666766" d="M109.6,231.5c-0.5,0.3-1.2,0.6-2.1,0.9c-0.9,0.3-1.7,0.4-2.6,0.4c-1.3,0-2.5-0.2-3.5-0.7
			c-1-0.5-1.7-1-2.4-1.8c-0.6-0.8-1.1-1.6-1.3-2.6c-0.3-1-0.4-2-0.4-3s0.1-2,0.4-3c0.3-1,0.7-1.8,1.2-2.6c0.5-0.7,1.2-1.3,2-1.8
			c0.8-0.4,1.8-0.7,3-0.7c1.2,0,2.2,0.2,3,0.7c0.8,0.5,1.5,1.1,2,1.8c0.5,0.8,0.9,1.6,1.1,2.6c0.2,1,0.3,2,0.3,3v0.6H100
			c0,0.6,0.1,1.3,0.4,1.9c0.2,0.6,0.5,1.1,0.9,1.6c0.4,0.5,0.9,0.9,1.5,1.1c0.6,0.3,1.3,0.4,2.1,0.4c1.1,0,2-0.2,2.7-0.5
			s1.4-0.7,2-1.1V231.5z M107.6,223.7c0-0.5-0.1-1-0.2-1.6c-0.1-0.6-0.3-1.1-0.6-1.6c-0.3-0.5-0.7-0.9-1.2-1.2
			c-0.5-0.3-1.1-0.5-1.9-0.5c-0.7,0-1.3,0.2-1.8,0.5c-0.5,0.3-0.9,0.8-1.2,1.2c-0.3,0.5-0.5,1-0.6,1.6c-0.1,0.5-0.2,1-0.2,1.5H107.6
			z"/>
		<path fill="#666766" d="M114.6,230.6v-11.5h-2c-0.1-0.3-0.2-0.6-0.2-0.9c0-0.3,0.1-0.6,0.2-0.9h4.2v2.9c0.1-0.3,0.3-0.6,0.6-1
			c0.3-0.3,0.6-0.6,1-0.9s0.8-0.5,1.3-0.7c0.5-0.2,0.9-0.3,1.5-0.3c0.3,0,0.7,0,0.9,0.1c0.3,0,0.6,0.1,0.8,0.2l-0.2,2.5
			c-0.2-0.1-0.4-0.2-0.7-0.3c-0.3-0.1-0.7-0.2-1.1-0.2c-0.4,0-0.8,0.1-1.2,0.2c-0.4,0.2-0.8,0.4-1.1,0.8c-0.4,0.4-0.6,0.9-0.9,1.5
			c-0.2,0.6-0.3,1.5-0.3,2.4v6h2.2c0.1,0.3,0.2,0.6,0.2,0.9s-0.1,0.6-0.2,0.9h-6.8c-0.1-0.3-0.2-0.6-0.2-0.9s0.1-0.6,0.2-0.9H114.6z
			"/>
		<path fill="#666766" d="M124.8,235.4c0.3,0.1,0.7,0.2,1.1,0.3c0.4,0.1,0.8,0.1,1.1,0.1c0.3,0,0.7,0,1-0.1c0.3-0.1,0.6-0.2,0.8-0.4
			c0.2-0.2,0.5-0.5,0.7-0.9c0.2-0.4,0.4-0.9,0.6-1.6l-4.9-13.7h-1.6c-0.1-0.3-0.2-0.6-0.2-0.9c0-0.3,0.1-0.6,0.2-0.9h6.1
			c0.1,0.3,0.2,0.6,0.2,0.9c0,0.3-0.1,0.6-0.2,0.9h-1.9l2.9,8.7c0,0.1,0.1,0.3,0.2,0.5s0.1,0.5,0.2,0.7c0.1,0.2,0.1,0.5,0.2,0.7
			c0.1,0.2,0.1,0.4,0.1,0.6c0-0.1,0.1-0.3,0.1-0.6c0.1-0.2,0.1-0.5,0.2-0.7c0.1-0.2,0.2-0.5,0.2-0.7s0.1-0.4,0.2-0.5l2.9-8.7h-1.9
			c-0.1-0.3-0.2-0.6-0.2-0.9c0-0.3,0.1-0.6,0.2-0.9h5.8c0.1,0.3,0.2,0.6,0.2,0.9c0,0.3-0.1,0.6-0.2,0.9h-1.6l-5.2,14.7
			c-0.3,0.8-0.6,1.5-0.9,2c-0.4,0.5-0.7,0.9-1.1,1.3c-0.4,0.3-0.9,0.5-1.4,0.6c-0.5,0.1-1,0.2-1.6,0.2s-1.1,0-1.4-0.1
			c-0.4-0.1-0.7-0.2-1.1-0.3V235.4z"/>
		<path fill="#666766" d="M151.1,230.2c-0.2,0.4-0.4,0.8-0.7,1.1c-0.3,0.3-0.6,0.6-1,0.8c-0.4,0.2-0.8,0.4-1.2,0.5
			c-0.4,0.1-0.9,0.2-1.3,0.2c-1.3,0-2.4-0.3-3.2-0.8c-0.9-0.5-1.5-1.2-2.1-2c-0.5-0.8-0.9-1.7-1.1-2.7s-0.3-1.9-0.3-2.9
			c0-1.1,0.1-2.1,0.4-3.1c0.3-1,0.7-1.8,1.2-2.5c0.5-0.7,1.2-1.2,2-1.6c0.8-0.4,1.7-0.6,2.7-0.6c0.6,0,1.2,0.1,1.7,0.3
			s0.9,0.4,1.3,0.6c0.4,0.2,0.7,0.5,0.9,0.8c0.2,0.3,0.4,0.5,0.6,0.8v-7.7h-2c-0.1-0.3-0.2-0.6-0.2-0.9s0.1-0.7,0.2-0.9h4.6v20.9h2
			c0.1,0.3,0.2,0.6,0.2,0.9s-0.1,0.6-0.2,0.9h-4.4V230.2z M146.9,230.7c0.4,0,0.8-0.1,1.3-0.3s0.9-0.5,1.4-0.9
			c0.4-0.4,0.8-1,1.1-1.8c0.3-0.7,0.4-1.7,0.4-2.8c0-0.5,0-1.2-0.1-1.8c-0.1-0.7-0.3-1.3-0.6-2c-0.3-0.6-0.7-1.1-1.2-1.6
			c-0.5-0.4-1.2-0.6-2.1-0.6c-0.9,0-1.7,0.2-2.2,0.6c-0.6,0.4-1,0.9-1.3,1.5c-0.3,0.6-0.5,1.2-0.6,1.9c-0.1,0.7-0.1,1.2-0.1,1.7
			c0,0.8,0.1,1.6,0.3,2.3c0.2,0.7,0.4,1.3,0.8,1.9c0.3,0.5,0.8,0.9,1.3,1.2C145.6,230.6,146.2,230.7,146.9,230.7z"/>
		<path fill="#666766" d="M164.8,232.9c-1.2,0-2.3-0.2-3.2-0.7c-0.9-0.5-1.6-1.1-2.2-1.8s-1-1.6-1.3-2.6c-0.3-1-0.4-1.9-0.4-2.9
			c0-1,0.1-2,0.4-2.9c0.3-1,0.7-1.8,1.3-2.6s1.3-1.4,2.2-1.8c0.9-0.5,1.9-0.7,3.2-0.7c1.2,0,2.3,0.2,3.2,0.7s1.6,1.1,2.2,1.8
			s1,1.6,1.3,2.6c0.3,1,0.4,1.9,0.4,2.9c0,1-0.1,2-0.4,2.9c-0.3,1-0.7,1.8-1.3,2.6s-1.3,1.4-2.2,1.8S166,232.9,164.8,232.9z
			 M164.8,230.7c0.9,0,1.7-0.2,2.2-0.6c0.6-0.4,1-0.9,1.4-1.5c0.3-0.6,0.6-1.2,0.7-1.9s0.2-1.3,0.2-1.8c0-0.5-0.1-1.1-0.2-1.8
			s-0.3-1.3-0.7-1.9c-0.3-0.6-0.8-1.1-1.4-1.5c-0.6-0.4-1.3-0.6-2.2-0.6c-0.9,0-1.7,0.2-2.2,0.6c-0.6,0.4-1,0.9-1.3,1.5
			c-0.3,0.6-0.5,1.2-0.7,1.9c-0.1,0.7-0.2,1.3-0.2,1.8c0,0.5,0.1,1.1,0.2,1.8c0.1,0.7,0.3,1.3,0.7,1.9c0.3,0.6,0.8,1.1,1.3,1.5
			C163.1,230.5,163.9,230.7,164.8,230.7z"/>
		<path fill="#666766" d="M176.3,230.6v-19h-2c-0.1-0.3-0.2-0.6-0.2-0.9c0-0.3,0.1-0.6,0.2-0.9h4.6v20.9h2c0.1,0.3,0.2,0.6,0.2,0.9
			s-0.1,0.6-0.2,0.9h-6.6c-0.1-0.3-0.2-0.6-0.2-0.9s0.1-0.6,0.2-0.9H176.3z"/>
		<path fill="#666766" d="M185.1,230.6v-19h-2c-0.1-0.3-0.2-0.6-0.2-0.9c0-0.3,0.1-0.6,0.2-0.9h4.6v20.9h2c0.1,0.3,0.2,0.6,0.2,0.9
			s-0.1,0.6-0.2,0.9h-6.6c-0.1-0.3-0.2-0.6-0.2-0.9s0.1-0.6,0.2-0.9H185.1z"/>
		<path fill="#666766" d="M201.8,230.4c-0.2,0.3-0.4,0.6-0.6,0.9c-0.2,0.3-0.6,0.6-0.9,0.8c-0.4,0.2-0.9,0.4-1.4,0.6
			c-0.6,0.1-1.2,0.2-1.9,0.2c-1.5,0-2.7-0.4-3.6-1.2c-0.9-0.8-1.4-1.9-1.4-3.3c0-0.7,0.1-1.3,0.3-1.9c0.2-0.6,0.5-1.1,0.9-1.5
			c0.4-0.5,1-0.8,1.7-1.1c0.7-0.3,1.5-0.5,2.5-0.6l4.4-0.4v-0.5c0-0.5-0.1-1-0.2-1.4c-0.1-0.4-0.3-0.8-0.6-1.1
			c-0.3-0.3-0.6-0.5-1.1-0.7c-0.5-0.1-1-0.2-1.8-0.2c-0.5,0-1,0.1-1.5,0.2c-0.5,0.1-0.9,0.3-1.3,0.5c-0.4,0.2-0.8,0.4-1.1,0.6
			s-0.6,0.4-0.8,0.6v-2.4c0.2-0.1,0.5-0.3,0.8-0.5c0.3-0.2,0.7-0.4,1.2-0.5c0.4-0.2,1-0.3,1.5-0.4s1.2-0.2,1.9-0.2
			c0.4,0,1,0,1.6,0.1s1.2,0.3,1.8,0.7c0.6,0.4,1.1,0.9,1.5,1.5c0.4,0.7,0.6,1.6,0.6,2.8v8.6h1.9c0.1,0.3,0.2,0.6,0.2,0.9
			s-0.1,0.6-0.2,0.9h-4.3V230.4z M201.7,224.8l-3.8,0.4c-1.1,0.1-1.9,0.4-2.5,0.9c-0.6,0.5-0.9,1.2-0.9,2.3c0,0.7,0.3,1.3,0.8,1.8
			c0.5,0.4,1.2,0.7,2.1,0.7c0.5,0,1-0.1,1.5-0.2c0.5-0.2,1-0.4,1.4-0.7s0.7-0.7,1-1.1c0.3-0.5,0.4-1,0.4-1.5V224.8z"/>
		<path fill="#666766" d="M210.2,230.6v-11.5h-2c-0.1-0.3-0.2-0.6-0.2-0.9c0-0.3,0.1-0.6,0.2-0.9h4.2v2.9c0.1-0.3,0.3-0.6,0.6-1
			c0.3-0.3,0.6-0.6,1-0.9c0.4-0.3,0.8-0.5,1.3-0.7c0.5-0.2,1-0.3,1.5-0.3c0.3,0,0.7,0,0.9,0.1c0.3,0,0.6,0.1,0.8,0.2l-0.2,2.5
			c-0.2-0.1-0.4-0.2-0.7-0.3c-0.3-0.1-0.7-0.2-1.1-0.2c-0.4,0-0.8,0.1-1.2,0.2c-0.4,0.2-0.8,0.4-1.1,0.8c-0.4,0.4-0.6,0.9-0.9,1.5
			c-0.2,0.6-0.3,1.5-0.3,2.4v6h2.2c0.1,0.3,0.2,0.6,0.2,0.9s-0.1,0.6-0.2,0.9h-6.8c-0.1-0.3-0.2-0.6-0.2-0.9s0.1-0.6,0.2-0.9H210.2z
			"/>
		<path fill="#666766" d="M223,232.9c-0.5,0-1-0.2-1.3-0.6s-0.5-0.9-0.5-1.4s0.2-1,0.5-1.4c0.3-0.4,0.8-0.6,1.3-0.6s1,0.2,1.3,0.6
			c0.3,0.4,0.5,0.9,0.5,1.4s-0.2,1-0.5,1.4C223.9,232.7,223.5,232.9,223,232.9z"/>
		<path fill="#666766" d="M240.8,231.1c-0.2,0.2-0.5,0.3-0.8,0.5c-0.3,0.2-0.7,0.4-1.1,0.6c-0.4,0.2-0.9,0.3-1.5,0.5
			c-0.6,0.1-1.2,0.2-1.8,0.2c-1.1,0-2.2-0.2-3-0.6c-0.9-0.4-1.6-1-2.2-1.7c-0.6-0.7-1.1-1.5-1.4-2.4c-0.3-0.9-0.5-1.9-0.5-3
			c0-1.1,0.1-2.2,0.4-3.2c0.3-1,0.7-1.9,1.2-2.6s1.3-1.3,2.1-1.8c0.8-0.4,1.8-0.7,3-0.7c0.9,0,1.7,0.2,2.3,0.5
			c0.7,0.4,1.1,0.8,1.4,1.3v-1.4c0.3-0.1,0.6-0.2,0.9-0.2c0.3,0,0.7,0.1,1,0.2v6.2c-0.4,0.1-0.7,0.2-1,0.2s-0.7-0.1-1.1-0.2v-0.8
			c0-1.1-0.3-2-0.9-2.7c-0.6-0.7-1.4-1-2.5-1c-0.9,0-1.6,0.2-2.1,0.6c-0.6,0.4-1,0.8-1.3,1.4s-0.5,1.2-0.7,1.9
			c-0.1,0.7-0.2,1.4-0.2,2.1c0,0.9,0.1,1.7,0.4,2.4c0.2,0.7,0.6,1.3,1,1.7c0.4,0.5,0.9,0.8,1.5,1c0.6,0.2,1.2,0.3,1.9,0.3
			c0.6,0,1.2-0.1,1.7-0.3c0.5-0.2,1-0.4,1.4-0.6c0.4-0.2,0.8-0.5,1.1-0.7c0.3-0.2,0.5-0.4,0.7-0.6V231.1z"/>
		<path fill="#666766" d="M250.8,232.9c-1.2,0-2.3-0.2-3.2-0.7c-0.9-0.5-1.6-1.1-2.2-1.8s-1-1.6-1.3-2.6c-0.3-1-0.4-1.9-0.4-2.9
			c0-1,0.1-2,0.4-2.9c0.3-1,0.7-1.8,1.3-2.6s1.3-1.4,2.2-1.8c0.9-0.5,1.9-0.7,3.2-0.7c1.2,0,2.3,0.2,3.2,0.7
			c0.9,0.5,1.6,1.1,2.2,1.8s1,1.6,1.3,2.6c0.3,1,0.4,1.9,0.4,2.9c0,1-0.1,2-0.4,2.9c-0.3,1-0.7,1.8-1.3,2.6s-1.3,1.4-2.2,1.8
			C253,232.6,252,232.9,250.8,232.9z M250.8,230.7c0.9,0,1.7-0.2,2.2-0.6s1-0.9,1.4-1.5c0.3-0.6,0.6-1.2,0.7-1.9s0.2-1.3,0.2-1.8
			c0-0.5-0.1-1.1-0.2-1.8s-0.3-1.3-0.7-1.9c-0.3-0.6-0.8-1.1-1.4-1.5s-1.3-0.6-2.2-0.6s-1.7,0.2-2.2,0.6c-0.6,0.4-1,0.9-1.3,1.5
			c-0.3,0.6-0.5,1.2-0.7,1.9c-0.1,0.7-0.2,1.3-0.2,1.8c0,0.5,0.1,1.1,0.2,1.8c0.1,0.7,0.3,1.3,0.7,1.9c0.3,0.6,0.8,1.1,1.3,1.5
			C249.1,230.5,249.8,230.7,250.8,230.7z"/>
		<path fill="#666766" d="M262.2,230.6v-11.5h-2c-0.1-0.3-0.2-0.6-0.2-0.9c0-0.3,0.1-0.6,0.2-0.9h4.2v2.2c0.1-0.3,0.3-0.5,0.5-0.9
			c0.2-0.3,0.5-0.6,0.9-0.9c0.3-0.3,0.8-0.5,1.3-0.7c0.5-0.2,1.1-0.3,1.8-0.3c1.1,0,1.9,0.2,2.6,0.6c0.7,0.4,1.2,1,1.6,1.8
			c0.2-0.3,0.4-0.6,0.6-0.9c0.2-0.3,0.5-0.5,0.9-0.8c0.3-0.2,0.8-0.4,1.3-0.6c0.5-0.1,1.1-0.2,1.7-0.2c1.6,0,2.8,0.5,3.5,1.3
			c0.7,0.9,1.1,2.2,1.1,4v8.4h2c0.1,0.3,0.2,0.6,0.2,0.9s-0.1,0.6-0.2,0.9h-6.4c-0.1-0.3-0.2-0.6-0.2-0.9s0.1-0.6,0.2-0.9h1.8v-7.5
			c0-0.6,0-1.1-0.1-1.6c-0.1-0.5-0.2-0.9-0.4-1.3c-0.2-0.4-0.5-0.6-0.8-0.8c-0.4-0.2-0.9-0.3-1.5-0.3c-0.4,0-0.9,0.1-1.3,0.3
			s-0.8,0.4-1.1,0.8c-0.3,0.4-0.6,0.9-0.8,1.6c-0.2,0.7-0.3,1.5-0.3,2.5v6.4h1.8c0.1,0.3,0.2,0.6,0.2,0.9s-0.1,0.6-0.2,0.9h-6.1
			c-0.1-0.3-0.2-0.6-0.2-0.9s0.1-0.6,0.2-0.9h1.8v-7.5c0-0.6,0-1.1-0.1-1.6c-0.1-0.5-0.2-0.9-0.4-1.3c-0.2-0.4-0.5-0.6-0.8-0.8
			c-0.4-0.2-0.8-0.3-1.5-0.3c-0.4,0-0.9,0.1-1.3,0.3s-0.8,0.4-1.1,0.8c-0.3,0.4-0.6,0.9-0.8,1.6c-0.2,0.7-0.3,1.5-0.3,2.5v6.4h1.8
			c0.1,0.3,0.2,0.6,0.2,0.9s-0.1,0.6-0.2,0.9h-6.4c-0.1-0.3-0.2-0.6-0.2-0.9s0.1-0.6,0.2-0.9H262.2z"/>
	</g>
</g>
</svg>
