<?xml version="1.0" encoding="utf-8"?>
<!-- Generator: Adobe Illustrator 18.1.1, SVG Export Plug-In . SVG Version: 6.00 Build 0)  -->
<!DOCTYPE svg PUBLIC "-//W3C//DTD SVG 1.1//EN" "http://www.w3.org/Graphics/SVG/1.1/DTD/svg11.dtd">
<svg version="1.1" id="Layer_1" xmlns="http://www.w3.org/2000/svg" xmlns:xlink="http://www.w3.org/1999/xlink" x="0px" y="0px"
	 viewBox="0 0 596.6 110.8" enable-background="new 0 0 596.6 110.8" xml:space="preserve">
<g>
	<path fill="#FFFFFF" d="M128.3,3.5H164c11.5,0,19.5,3,24.6,8.2c4.4,4.3,6.7,10.1,6.7,17.6v0.2c0,11.6-6.2,19.2-15.5,23.2l18,26.3
		h-24.2l-15.2-22.9h-0.2h-9v22.9h-20.9V3.5z M163.1,39.8c7.1,0,11.2-3.5,11.2-9v-0.2c0-5.9-4.3-9-11.3-9h-13.7v18.1H163.1z"/>
	<path fill="#FFFFFF" d="M365.4,67.8l11.6-13.9c7.5,5.9,15.8,9.1,24.5,9.1c5.6,0,8.6-1.9,8.6-5.2v-0.2c0-3.1-2.5-4.9-12.7-7.2
		c-16.1-3.7-28.5-8.2-28.5-23.7v-0.2c0-14,11.1-24.2,29.2-24.2c12.8,0,22.9,3.5,31.1,10L418.8,27c-6.9-4.9-14.5-7.4-21.1-7.4
		c-5.1,0-7.6,2.2-7.6,4.9v0.2c0,3.5,2.6,5,13.1,7.3c17.4,3.8,28.2,9.4,28.2,23.5v0.2c0,15.4-12.2,24.6-30.5,24.6
		C387.4,80.3,374.7,76.1,365.4,67.8z"/>
	<path fill="#FFFFFF" d="M438.5,3.5h47.5l10.8,17.8h-37.6v11.4h33.1v16.5h-33.1v12h38.6v17.8h-59.3V3.5z"/>
	<polygon fill="#FFFFFF" points="551.6,3.5 536,31 520.4,3.5 496.5,3.5 525.3,50.8 525.3,79.1 546.3,79.1 546.3,50.5 575,3.5 	"/>
	<path fill="#FFFFFF" d="M245.1,3h-20.2l-26.1,61.7l9.8,14.3h6.2l5.4-13.5h29.1l5.5,13.5h22.4L245.1,3z M226.3,49.3l8.5-21.5
		l8.4,21.5H226.3z"/>
	<polygon fill="#FFFFFF" points="337.8,3.5 319.7,32.8 301.7,3.5 279.6,3.5 279.6,61.2 287.2,79.1 300.1,79.1 300.1,35.9 
		319.3,65.2 319.7,65.2 339.1,35.7 339.1,79.1 359.9,79.1 359.9,3.5 	"/>
</g>
<g>
	<path fill="#FFFFFF" d="M135.3,96.4c3.6,0.9,5.5,2.2,5.5,5c0,3.2-2.5,5.1-6.1,5.1c-2.6,0-5.1-0.9-7.1-2.7l1.8-2.1
		c1.6,1.4,3.3,2.2,5.4,2.2c1.9,0,3-0.9,3-2.2c0-1.2-0.7-1.9-3.9-2.6c-3.6-0.9-5.7-2-5.7-5.1c0-3,2.4-5,5.8-5c2.5,0,4.5,0.8,6.2,2.1
		l-1.6,2.3c-1.5-1.1-3.1-1.8-4.6-1.8c-1.8,0-2.8,0.9-2.8,2C131.2,95.1,132,95.7,135.3,96.4z"/>
	<path fill="#FFFFFF" d="M186.5,106.6c-5.2,0-8.9-4-8.9-8.8c0-4.8,3.7-8.8,8.9-8.8c5.2,0,8.9,4,8.9,8.8
		C195.5,102.6,191.8,106.6,186.5,106.6z M186.5,91.7c-3.4,0-5.8,2.7-5.8,6c0,3.3,2.4,6.1,5.8,6.1c3.4,0,5.8-2.7,5.8-6
		C192.3,94.5,189.9,91.7,186.5,91.7z"/>
	<path fill="#FFFFFF" d="M233.5,89.3h3v14.3h9v2.7h-12V89.3z"/>
	<path fill="#FFFFFF" d="M296.7,98.9c0,5.1-2.9,7.7-7.3,7.7c-4.4,0-7.3-2.6-7.3-7.5v-9.8h3V99c0,3.2,1.6,4.9,4.3,4.9
		c2.7,0,4.3-1.6,4.3-4.8v-9.8h3V98.9z"/>
	<path fill="#FFFFFF" d="M342.3,106.3h-3V92h-5.4v-2.8h13.8V92h-5.4V106.3z"/>
	<path fill="#FFFFFF" d="M388,89.3v17.1h-3V89.3H388z"/>
	<path fill="#FFFFFF" d="M435,106.6c-5.2,0-8.9-4-8.9-8.8c0-4.8,3.7-8.8,8.9-8.8c5.2,0,8.9,4,8.9,8.8
		C443.9,102.6,440.2,106.6,435,106.6z M435,91.7c-3.4,0-5.8,2.7-5.8,6c0,3.3,2.4,6.1,5.8,6.1c3.4,0,5.8-2.7,5.8-6
		C440.8,94.5,438.3,91.7,435,91.7z"/>
	<path fill="#FFFFFF" d="M493.9,89.3h2.9v17.1h-2.5l-9.4-12.1v12.1h-2.9V89.3h2.8l9.1,11.8V89.3z"/>
	<path fill="#FFFFFF" d="M542.1,96.4c3.6,0.9,5.5,2.2,5.5,5c0,3.2-2.5,5.1-6.1,5.1c-2.6,0-5.1-0.9-7.1-2.7l1.8-2.1
		c1.6,1.4,3.3,2.2,5.4,2.2c1.9,0,3-0.9,3-2.2c0-1.2-0.7-1.9-3.8-2.6c-3.6-0.9-5.7-2-5.7-5.1c0-3,2.4-5,5.8-5c2.5,0,4.5,0.8,6.2,2.1
		l-1.6,2.3c-1.5-1.1-3.1-1.8-4.6-1.8c-1.8,0-2.8,0.9-2.8,2C538.1,95.1,538.9,95.7,542.1,96.4z"/>
</g>
<g>
	<path fill="#FFFFFF" d="M62.5,43.9C62.5,43.9,62.5,43.9,62.5,43.9c0-0.1,0-0.1,0-0.1c0-5.5-4.9-5.7-7.5-5.7h-6.4v0v11.4v0h6.4
		C57.6,49.6,62.5,49.4,62.5,43.9z"/>
	<path fill="#FFFFFF" d="M4.5,3.5v102.8h102.9V3.5H4.5z M33.2,27.9h24.3c5.7,0,10.1,0.7,12,1.5C76,32.2,78,39.6,78,43.8
		c0,4.2-1.9,11.6-8.4,14.4c-1.9,0.8-4.3,1.5-12,1.5H33.2V27.9z M48.6,76.7H33.2V63.9h15.5V76.7z M65.8,82L55.2,63.9h16.6L82.9,82
		H65.8z"/>
</g>
<g>
	<path fill="#FFFFFF" d="M581.8,9.6h-0.7V4.1h-2V3.5h4.8v0.6h-2V9.6z"/>
	<path fill="#FFFFFF" d="M588.1,7.9L588.1,7.9l-2.3-3.3v4.9h-0.7V3.5h0.7l2.2,3.3l2.2-3.3h0.7v6.1h-0.7V4.7L588.1,7.9z"/>
</g>
</svg>
