<?xml version="1.0" encoding="utf-8"?>
<!-- Generator: Adobe Illustrator 18.1.1, SVG Export Plug-In . SVG Version: 6.00 Build 0)  -->
<!DOCTYPE svg PUBLIC "-//W3C//DTD SVG 1.1//EN" "http://www.w3.org/Graphics/SVG/1.1/DTD/svg11.dtd">
<svg version="1.1" id="Layer_1" xmlns="http://www.w3.org/2000/svg" xmlns:xlink="http://www.w3.org/1999/xlink" x="0px" y="0px"
	 viewBox="8.3 882.6 822.2 361" enable-background="new 8.3 882.6 822.2 361" xml:space="preserve">
<g>
	<path fill="#FFFFFF" d="M456,1209.4h-8.7c-2.2,0-3.7-1.5-3.7-3.7v-9.5h-0.3c-6.7,10-16.6,15-28.4,15.3c-21.5,0.5-39.2-16.8-41-38.4
		c-2.4-26.8,13.9-47.8,39.8-47.8c13.5,0,23.2,6,29,14.5h0.3v-47.1c0-2.2,1.5-3.7,3.7-3.7h9.3c2.2,0,3.7,1.5,3.7,3.7v113.1
		C459.7,1207.7,458.1,1209.4,456,1209.4z M417.3,1138.2c-16.6,0-26.3,12.7-26.3,29.2s9.7,29.4,26.3,29.4c16.6,0,26.3-12.7,26.3-29.4
		C443.6,1151,433.9,1138.2,417.3,1138.2z"/>
	<path fill="#FFFFFF" d="M516.9,1211.2c-24.8,0-44-17.3-44-43.2c0-25.9,19.2-43.4,44-43.4c24.8,0,44,17.8,44,43.4
		C560.8,1194.2,541.3,1211.2,516.9,1211.2z M516.9,1138.2c-16.8,0-27,12.8-27,29.2s10.2,29.4,27,29.4c16.6,0,26.8-12.8,26.8-29.4
		C543.6,1151.3,533.3,1138.2,516.9,1138.2z"/>
	<path fill="#FFFFFF" d="M586,1209.4h-9.3c-2.2,0-3.7-1.5-3.7-3.7v-113.1c0-2.2,1.5-3.7,3.7-3.7h9.3c2.2,0,3.7,1.5,3.7,3.7v113.1
		C589.7,1207.7,588.2,1209.4,586,1209.4z"/>
	<path fill="#FFFFFF" d="M620.5,1209.4h-9.3c-2.2,0-3.7-1.5-3.7-3.7v-113.1c0-2.2,1.5-3.7,3.7-3.7h9.3c2.2,0,3.7,1.5,3.7,3.7v113.1
		C624.3,1207.7,622.5,1209.4,620.5,1209.4z"/>
	<path fill="#FFFFFF" d="M704.4,1209.4h-8.9c-2.2,0-3.7-1.5-3.7-3.7v-6.8c-3.4,3.4-11.3,12.4-26.3,12.4c-15.3,0-28.7-9.7-28.7-25.9
		c0-16.3,13.1-24.5,32.6-25.2l22.1-0.8v-3.4c0-12.7-8.7-18.9-20.6-18.9c-8.9,0-17.1,3.1-21.5,5.3c-1.8,1.1-4.2,0-5-1.8l-1.8-4.2
		c-0.8-1.8,0-4,1.8-5c6.4-3.1,16.3-6.7,27.9-6.7c13.7,0,21.9,4,27.4,9.5c5.6,5.7,8.9,12.7,8.9,26.8v44.5
		C708.1,1207.7,706.6,1209.4,704.4,1209.4z M691.6,1169.7l-19.5,1.4c-13.5,0.8-18.9,6.7-18.9,14.2c0,7.6,6,14.2,17.1,14.2
		c10.8,0,17.9-7.4,21-12.1v-17.7L691.6,1169.7L691.6,1169.7z"/>
	<path fill="#FFFFFF" d="M756.8,1139.9c-7.4,0-11.9,4.7-13.7,7.1c-1.5,2.4-5,8.7-5,21v37.7c0,2.2-1.5,3.7-3.7,3.7h-9.3
		c-2.2,0-3.7-1.5-3.7-3.7v-75.5c0-2.2,1.5-3.7,3.7-3.7h9.3c2.2,0,3.7,1.5,3.7,3.7v8.9h0.5c4-9.5,11.6-14.2,20.6-14.2
		c2.2,0,4,0.3,5.6,0.5c1.8,0.3,3.1,2.2,3.1,4l-0.5,7.9c-0.3,2.4-2.4,4-4.5,3.4C760.8,1140.2,758.9,1139.9,756.8,1139.9z"/>
	<path fill="#FFFFFF" d="M83.3,1170.9H17.5c0.8,19.2,11.9,32.1,30.1,32.1c12.4,0,21-4.7,25.5-7.9c1.8-1.4,4.2-0.8,5.6,1.1l0.3,0.3
		c1.1,1.5,0.8,4-0.8,5c-4.2,3.7-14.2,9.7-31.2,9.7c-23.7,0-38.7-17.3-38.7-42.4c0-25.1,17.9-41.8,39.2-41.8s36.5,16.1,36.5,37.9
		C83.8,1167.6,83.3,1170.9,83.3,1170.9z M74.5,1163c0-10.6-7.9-28.4-27.9-28.4s-28.4,16.9-29.1,28.4H74.5z"/>
	<path fill="#FFFFFF" d="M158.6,1133.6l-30.8,73.4c-0.5,1.4-2.2,2.4-3.7,2.4h-1.8c-1.5,0-2.9-1.1-3.7-2.4l-30.9-73.4
		c-1.1-2.6,0.8-5.3,3.7-5.3h1.4c1.5,0,2.9,1.1,3.7,2.4l27,65.5l27-65.5c0.5-1.5,2.2-2.4,3.7-2.4h1.4
		C157.9,1128.3,159.6,1131,158.6,1133.6z"/>
	<path fill="#FFFFFF" d="M237.6,1170.9h-65.8c0.8,19.2,11.9,32.1,30.1,32.1c12.4,0,21-4.7,25.5-7.9c1.8-1.4,4.2-0.8,5.6,1.1l0.3,0.3
		c1.1,1.5,0.8,4-0.8,5c-4.2,3.7-14.2,9.7-31.2,9.7c-23.7,0-38.7-17.3-38.7-42.4c0-25.1,17.9-41.8,39.2-41.8s36.5,16.1,36.5,37.9
		C238,1167.6,237.6,1170.9,237.6,1170.9z M228.6,1163c0-10.6-7.9-28.4-27.9-28.4s-28.4,16.9-29,28.4H228.6z"/>
	<path fill="#FFFFFF" d="M288.1,1132.5c-0.3,2.2-2.2,3.7-4.5,3.4c-1.4-0.3-2.9-0.3-4.7-0.3c-7.9,0-12.7,5.6-13.9,7.4
		c-1.4,1.8-5.7,8.7-5.7,22.6v39.8c0,2.2-1.8,4-4,4h-1.4c-2.2,0-4-1.8-4-4V1132c0-2.2,1.8-4,4-4h1.4c2.2,0,4,1.8,4,4v11.3
		c2.9-11,11.9-16.6,20.6-16.6c2.2,0,3.7,0.3,5.3,0.5c2.2,0.3,3.4,2.2,3.1,4.2L288.1,1132.5L288.1,1132.5z"/>
	<path fill="#FFFFFF" d="M365.5,1128.3c3.1,0,5.3,3.1,4.2,6l-38.7,93.9c-5.6,13.5-12.7,15.3-18.1,15.3c-2.2,0-4.2-0.3-5.7-0.8
		c-2.4-0.5-4-2.9-3.4-5.3l0,0c0.5-2.4,2.6-4,5-3.4c1.1,0.3,2.4,0.3,4,0.3c5,0,8.2-1.8,12.1-12.7l4.7-13.5l-30.3-73.7
		c-1.4-2.9,1.1-6,4.2-6l0,0c1.8,0,3.4,1.1,4.2,2.9l26.8,68l26.8-68C362,1129.3,363.6,1128.3,365.5,1128.3L365.5,1128.3z"/>
	<g>
		<path fill="#FFFFFF" d="M432.8,882.7c0,0-92.7-5.6-161.6,63.1l104.9,31.9c0,0,59.5-74.4,159.5-68.4L432.8,882.7z M397,917.5
			c-16.6,0-29.7-4-29.7-8.7c0-4.7,13.5-8.7,29.7-8.7c16.6,0,29.7,4,29.7,8.7C426.8,913.5,413.4,917.5,397,917.5z"/>
		<path fill="#FFFFFF" d="M532.9,914.9c-87.6,0.5-154.5,81.9-154.5,81.9l-98.2-33l11,24.8l87.6,30.3c0,0,68.7-99.2,152.7-102.1
			L532.9,914.9z"/>
		<path fill="#FFFFFF" d="M529.2,922c-74,6.7-147.9,115.5-147.9,115.5l-80.8-30.8l9.5,20.8l71.3,27.9
			c54.5-83.9,108.2-125.1,146.9-131.1L529.2,922z"/>
	</g>
</g>
<g>
	<path fill="#FFFFFF" d="M785,1149.7l1-24.7l-8.7-0.4l0.1-3.1l21.1,0.9l-0.1,3.1l-8.7-0.4l-1,24.7L785,1149.7z"/>
	<path fill="#FFFFFF" d="M825.5,1151.4l1-23L816,1151l-1.2-0.1l-8.5-23.4l-1,23l-3.4-0.1l1.2-27.9l5.1,0.2l7.6,21.4l9.6-20.7
		l5.1,0.2l-1.2,27.9L825.5,1151.4z"/>
</g>
</svg>
